<?xml version="1.0" encoding="utf-8"?>
<!-- Generator: Adobe Illustrator 15.0.0, SVG Export Plug-In . SVG Version: 6.00 Build 0)  -->
<!DOCTYPE svg PUBLIC "-//W3C//DTD SVG 1.1//EN" "http://www.w3.org/Graphics/SVG/1.1/DTD/svg11.dtd">
<svg version="1.1" id="Layer_1" xmlns="http://www.w3.org/2000/svg" xmlns:xlink="http://www.w3.org/1999/xlink" x="0px" y="0px"
	 width="973.54px" height="853.158px" viewBox="0 0 973.54 853.158" enable-background="new 0 0 973.54 853.158"
	 xml:space="preserve">
<g>
	<g>
		<path fill-rule="evenodd" clip-rule="evenodd" d="M531.104,1c81.231,8.091,129.753,48.89,135.982,131.983
			c37.053-17.403,95.219-27.562,132.983-8.999c41.494,20.395,64.372,76.614,57.993,141.982
			c-3.762,38.548-23.414,72.768-45.994,94.989c-24.415,24.025-56.896,37.828-97.988,42.994
			c-18.309,25.334-37.817,57.961-43.994,97.988c-6.821,44.203,7.968,81.994,24.997,112.984
			c-48.94,34.717-110.313,56.998-185.977,64.992c-15.332,0-30.663,0-45.994,0c-72.087-6.904-133.993-23.986-184.978-51.992
			c26.509-57.371,38.702-155.613,11.999-221.973c-72.707-10.713-131.661-39.057-160.98-94.989
			c-34.829-66.442-12.893-149.619,37.996-181.977c49.338-31.373,126.55-8.092,169.979,14.998
			C339.847,45.714,404.951,9.829,496.108,0 M641.09,515.936c0.448-52.107,34.03-90.035,66.991-110.986
			c-5.741-1.518-33.33,3.094-40.995-3c91.296-3.895,162.687-49.145,168.979-136.983c4.642-64.806-21.058-121.412-79.99-124.984
			c-44.842-2.718-84.61,20.204-114.985,32.996c17.76-104.406-52.281-156.98-138.983-156.98c-89.602,0-165.38,41.428-156.98,140.982
			c-36.273-14.088-68.813-33.016-120.984-28.997c-84.648,6.521-112.764,116.631-70.991,184.977
			c24.344,39.829,71.17,64.379,118.985,77.991c26.09,7.426,53.752,10.926,81.99,16.998c-18.185,2.516-40.566,0.574-57.993-1
			c15.333,24.787,29.235,58.707,28.996,97.986c-0.277,45.598-8.499,78.176-27.456,104.307c-2.566,3.539-6.795,9.305-9.417,13.584
			c52.423-26.607,110.854-51.85,182.854-60.896c83.136-10.447,152.313,15.6,208.975,42.994
			C660.051,586.542,640.775,552.491,641.09,515.936z M470.111,575.928c-69.375,3.635-125.998,23.262-168.979,51.994
			c56.898,18.994,126.174,34.787,200.975,32.994c73.661-1.764,137.949-23.238,188.977-45.994
			C631.51,591.696,552.145,571.629,470.111,575.928z"/>
		<path fill-rule="evenodd" clip-rule="evenodd" d="M619.092,392.952c-5.443-12.143-9.948-21.959-16.997-30.996
			c-51.406-65.915-191.561-24.542-263.967-5c-1.136-0.189-0.556-1.004,0-1c45.845-24.836,107.018-53.09,180.977-48.994
			C574.064,310.005,613.737,337.242,619.092,392.952z"/>
	</g>
	<g>
		<path d="M87.2,750.757c0.666-2,1.466-4.565,2.4-7.7c0.932-3.131,2.131-6.131,3.6-9c1.466-2.865,3.231-5.331,5.3-7.399
			c2.065-2.065,4.565-3.101,7.5-3.101c0.931,0,1.831,0.669,2.7,2c0.866,1.335,1.3,3.669,1.3,7c0,4.4-0.469,8.7-1.4,12.9
			c-0.934,4.2-1.934,8.435-3,12.7c-1.068,4.269-2.068,8.6-3,13c-0.934,4.399-1.4,8.935-1.4,13.6c0,1.2,0.066,3.369,0.2,6.5
			c0.131,3.135,0.4,6.7,0.8,10.7s1,8.169,1.8,12.5c0.8,4.334,1.9,8.3,3.3,11.9c1.4,3.6,3.131,6.568,5.2,8.899
			c2.065,2.331,4.631,3.5,7.7,3.5c4.666,0,8.566-2.068,11.7-6.2c3.131-4.131,5.931-9.565,8.4-16.3
			c2.466-6.731,4.731-14.365,6.8-22.899c2.066-8.531,4.366-17.231,6.9-26.101c2.531-8.865,5.431-17.466,8.7-25.8
			c3.266-8.331,7.366-15.7,12.3-22.1c0.531-0.801,1.565-1.9,3.1-3.301c1.531-1.399,3.131-2.531,4.8-3.399
			c1.666-0.866,3.131-1.132,4.4-0.8c1.266,0.334,1.9,1.769,1.9,4.3c0,1.868-0.269,3.7-0.8,5.5c-0.535,1.8-1.134,3.5-1.8,5.1
			c-2.934,10.4-5.5,19.369-7.7,26.9c-2.2,7.534-4.134,14.068-5.8,19.6c-1.668,5.534-3.168,10.369-4.5,14.5
			c-1.334,4.135-2.6,8.069-3.8,11.8c-1.6,4.669-3.569,10.069-5.9,16.2c-2.334,6.135-5.234,11.969-8.7,17.5
			c-3.469,5.531-7.534,10.231-12.2,14.101c-4.669,3.865-10,5.8-16,5.8c-6.669,0-12.069-1.734-16.2-5.2
			c-4.134-3.469-7.369-7.834-9.7-13.1c-2.334-5.266-3.969-11-4.9-17.2c-0.934-6.2-1.469-11.966-1.6-17.3
			c-2,4.269-4.634,9.1-7.9,14.5c-3.269,5.399-7,10.434-11.2,15.1c-4.2,4.669-8.869,8.6-14,11.8c-5.135,3.2-10.569,4.8-16.3,4.8
			c-6.134,0-11.4-1.934-15.8-5.8c-4.4-3.868-8.1-8.865-11.1-15c-3-6.131-5.369-13-7.1-20.6c-1.734-7.601-3.069-15.166-4-22.7
			c-0.934-7.531-1.534-14.6-1.8-21.2c-0.269-6.6-0.4-11.966-0.4-16.1c0-4.132,0.266-8.2,0.8-12.2c0.531-4,1.731-7.865,3.6-11.6
			c0.131-0.266,0.465-0.766,1-1.5c0.531-0.731,1.166-1.466,1.9-2.2c0.731-0.731,1.431-1.366,2.1-1.9c0.666-0.531,1.331-0.8,2-0.8
			c0.666,0,1.2,0.534,1.6,1.6c0.4,1.069,0.6,2.4,0.6,4c0,3.734-0.434,7.5-1.3,11.301c-0.869,3.8-1.3,8.234-1.3,13.3
			c0,2.534,0.2,6.435,0.6,11.7c0.4,5.269,1.031,11.1,1.9,17.5c0.865,6.399,2,12.969,3.4,19.699c1.4,6.734,3.2,12.9,5.4,18.5
			c2.2,5.601,4.766,10.169,7.7,13.7c2.931,3.534,6.331,5.3,10.2,5.3c4.4,0,8.5-1.565,12.3-4.699c3.8-3.132,7.266-7.166,10.4-12.101
			c3.131-4.931,6-10.466,8.6-16.6c2.6-6.132,4.865-12.2,6.8-18.2c1.931-6,3.631-11.6,5.1-16.8
			C84.865,757.958,86.131,753.827,87.2,750.757z"/>
		<path d="M186.396,749.757c0-3.2,0.866-5.431,2.6-6.7c1.731-1.266,3.6-1.831,5.6-1.699c2,0.134,3.766,0.868,5.3,2.199
			c1.531,1.335,2.1,3.069,1.7,5.2c-0.269,0.935-0.569,3.269-0.9,7c-0.334,3.734-0.769,8.269-1.3,13.601
			c-0.534,5.334-1.034,11.199-1.5,17.6c-0.469,6.4-0.9,12.734-1.3,19c1.6-3.466,3.366-6.831,5.3-10.1
			c1.932-3.266,3.432-5.632,4.5-7.101c1.066-1.331,2.6-2.365,4.6-3.1c2-0.731,3.931-1.065,5.8-1c1.865,0.068,3.365,0.534,4.5,1.399
			c1.131,0.869,1.365,2.234,0.7,4.101c-0.4,1.2-0.869,3.7-1.4,7.5c-0.534,3.8-0.969,7.7-1.3,11.7c-0.334,4-0.469,7.6-0.4,10.8
			c0.066,3.2,0.432,4.8,1.1,4.8c0.8,0,1.832-0.932,3.1-2.8c1.266-1.866,2.565-4.101,3.9-6.7c1.332-2.6,2.531-5.266,3.6-8
			c1.065-2.731,1.866-4.966,2.4-6.7c0.4-1.2,1.031-2,1.9-2.399c0.866-0.4,1.7-0.531,2.5-0.4c0.8,0.135,1.466,0.568,2,1.3
			c0.531,0.734,0.666,1.7,0.4,2.9c-0.4,1.868-1.269,4.5-2.6,7.899c-1.334,3.4-2.969,6.869-4.9,10.4
			c-1.935,3.534-4.135,6.669-6.6,9.4c-2.469,2.734-4.969,4.368-7.5,4.899c-2.8,0.534-5.069,0.269-6.8-0.8
			c-1.734-1.065-3.068-2.6-4-4.6c-0.934-2-1.568-4.332-1.9-7c-0.334-2.666-0.469-5.266-0.4-7.801c0.065-2.531,0.266-4.865,0.6-7
			c0.331-2.131,0.7-3.73,1.1-4.8c-0.669,0.269-1.6,1.769-2.8,4.5c-1.2,2.734-2.434,5.8-3.7,9.2c-1.269,3.4-2.435,6.769-3.5,10.1
			c-1.069,3.335-1.669,5.801-1.8,7.4c0,0.4-0.069,0.669-0.2,0.8v2c0,1.866-0.769,3.3-2.3,4.3c-1.534,1-3.2,1.531-5,1.601
			c-1.8,0.065-3.4-0.335-4.8-1.2c-1.4-0.869-1.966-2.3-1.7-4.3c0.269-3.331,0.6-7.632,1-12.9c0.4-5.266,0.8-10.899,1.2-16.899
			s0.8-12.101,1.2-18.301c0.4-6.199,0.731-11.965,1-17.3c0.266-5.331,0.5-9.966,0.7-13.899
			C186.297,753.926,186.396,751.226,186.396,749.757z"/>
		<path d="M256.596,781.358c1.866,0.399,3.5,1.269,4.9,2.6c1.4,1.334,2.565,2.8,3.5,4.4c1.065-1.2,2.4-1.866,4-2
			c1.6-0.132,3.131,0.1,4.6,0.699c1.465,0.601,2.666,1.535,3.6,2.801c0.931,1.269,1.266,2.769,1,4.5c-0.535,2.399-1.035,5.399-1.5,9
			c-0.469,3.6-0.769,7.068-0.9,10.399c-0.134,3.335-0.034,6.2,0.3,8.601c0.331,2.399,1.031,3.6,2.1,3.6c0.8,0,1.766-1.031,2.9-3.1
			c1.131-2.066,2.266-4.5,3.4-7.301c1.131-2.8,2.166-5.6,3.1-8.399c0.931-2.8,1.531-4.932,1.8-6.4c0.4-1.331,1.066-2.231,2-2.7
			c0.931-0.465,1.832-0.6,2.7-0.399c0.866,0.2,1.6,0.7,2.2,1.5c0.6,0.8,0.7,1.8,0.3,3c-0.269,0.8-0.7,2.3-1.3,4.5
			c-0.6,2.2-1.369,4.634-2.3,7.3c-0.935,2.669-2.034,5.435-3.3,8.3c-1.269,2.869-2.734,5.4-4.4,7.601
			c-1.668,2.199-3.534,3.899-5.6,5.1c-2.069,1.2-4.3,1.466-6.7,0.8c-3.869-1.065-6.669-3.399-8.4-7c-1.069,3.2-2.535,6.101-4.4,8.7
			c-1.869,2.6-4.269,4.5-7.2,5.7c-2.8,0.931-5.269,1.131-7.4,0.6c-3.869-1.068-6.935-3.469-9.2-7.2c-2.269-3.73-3.8-8.065-4.6-13
			c-0.8-4.931-0.865-10.065-0.2-15.399c0.668-5.331,2.031-10.132,4.1-14.4c2.065-4.266,4.831-7.631,8.3-10.1
			C247.461,781.192,251.661,780.426,256.596,781.358z M261.795,801.557c-0.269-2.266-0.769-4.465-1.5-6.6
			c-0.734-2.131-1.834-3.331-3.3-3.6c-2.134-0.4-4.034,0.368-5.7,2.3c-1.668,1.935-3.034,4.5-4.1,7.7
			c-1.069,3.199-1.834,6.699-2.3,10.5c-0.469,3.8-0.6,7.399-0.4,10.8c0.2,3.399,0.731,6.3,1.6,8.7c0.866,2.399,2.166,3.734,3.9,4
			c1.731,0.269,3.366-0.666,4.9-2.801c1.531-2.131,2.866-4.865,4-8.199c1.131-3.332,2-7.031,2.6-11.101
			C262.096,809.192,262.196,805.292,261.795,801.557z"/>
		<path d="M291.596,770.358c0-0.932,0.031-1.832,0.1-2.7c0.066-0.866,0.1-1.632,0.1-2.3c0-3.2,0.866-5.432,2.6-6.7
			c1.731-1.266,3.6-1.831,5.6-1.7c2,0.135,3.766,0.869,5.3,2.2c1.531,1.334,2.1,3.068,1.7,5.2l-1,5.199h4.8
			c2.531,0,4.366,0.435,5.5,1.301c1.131,0.868,1.7,1.8,1.7,2.8s-0.6,1.899-1.8,2.7c-1.2,0.8-2.869,1.199-5,1.199h-6
			c-0.534,4.801-1,10.101-1.4,15.9s-0.668,11.269-0.8,16.4c-0.134,5.134-0.069,9.399,0.2,12.8c0.266,3.399,0.866,5.1,1.8,5.1
			c0.8,0,1.9-1.2,3.3-3.6c1.4-2.4,2.832-5.166,4.3-8.3c1.465-3.132,2.8-6.2,4-9.2c1.2-3,2-5.031,2.4-6.101
			c0.266-1.199,0.866-2,1.8-2.399c0.931-0.4,1.832-0.5,2.7-0.3c0.866,0.199,1.6,0.668,2.2,1.399c0.6,0.734,0.7,1.7,0.3,2.9
			c-0.8,2.669-1.869,6.134-3.2,10.399c-1.334,4.27-3,8.4-5,12.4s-4.4,7.469-7.2,10.4c-2.8,2.931-6.135,4.399-10,4.399
			c-2.535,0-4.6-1-6.2-3s-2.8-4.631-3.6-7.899c-0.8-3.266-1.3-7.031-1.5-11.301c-0.2-4.266-0.231-8.665-0.1-13.199
			c0.135-4.531,0.4-9.101,0.8-13.7c0.4-4.601,0.731-8.831,1-12.7h-4.8c-2.131,0-3.766-0.4-4.9-1.2c-1.131-0.8-1.731-1.665-1.8-2.6
			c-0.066-0.932,0.434-1.8,1.5-2.601c1.069-0.8,2.8-1.199,5.2-1.199H291.596z"/>
		<path d="M501.79,709.557c1.6,0.135,3.5,0.435,5.701,0.9c2.199,0.469,4.266,1.2,6.199,2.2c1.932,1,3.6,2.269,5,3.8
			c1.4,1.534,2.1,3.3,2.1,5.3c0,1.869-1.299,3.234-3.9,4.101c-2.6,0.868-5.699,1.434-9.299,1.699c-3.6,0.27-7.334,0.4-11.201,0.4
			s-7.133,0-9.799,0l-44.6,1.2c0.665,4.134,1.199,9.068,1.6,14.8c0.4,5.734,0.731,11.534,1,17.4c0.266,5.868,0.432,11.5,0.5,16.899
			c0.065,5.4,0.1,9.769,0.1,13.101c0,1.199,0.031,3.3,0.101,6.3c0.065,3,0.065,6.435,0,10.3c-0.069,3.869-0.2,7.9-0.4,12.1
			c-0.2,4.2-0.534,8.035-1,11.5c-0.469,3.469-1.068,6.332-1.8,8.601c-0.734,2.266-1.7,3.399-2.9,3.399
			c-0.934,0-1.899-0.3-2.899-0.899c-1-0.601-1.969-1.3-2.9-2.101c-0.934-0.8-1.769-1.6-2.5-2.399c-0.734-0.8-1.3-1.469-1.7-2
			c-1.2-2-1.935-5-2.2-9c-0.269-4-0.334-8.266-0.2-12.8c0.131-4.531,0.4-9,0.8-13.4s0.6-8.131,0.6-11.2
			c0.131-10.531,0.331-19.231,0.6-26.1c0.266-6.866,0.565-12.5,0.9-16.9c0.331-4.399,0.731-7.865,1.2-10.399
			c0.466-2.531,0.966-4.731,1.5-6.601c-10.668,0.269-21.3,0.7-31.9,1.3c-10.6,0.601-21.434,0.9-32.5,0.9
			c-3.334,0-5.869-0.565-7.6-1.7c-1.734-1.131-2.6-2.231-2.6-3.3c0-2.131,1.065-3.7,3.2-4.7c2.131-1,4.731-1.665,7.8-2
			c3.065-0.331,6.3-0.5,9.7-0.5s6.366-0.2,8.9-0.6c9.332-0.932,18.731-2.065,28.2-3.4c9.466-1.331,18.966-2.531,28.5-3.6
			c9.531-1.065,19.1-1.9,28.7-2.5C482.39,709.057,492.055,709.026,501.79,709.557z"/>
		<path d="M492.59,830.757c-4.936,0-8.87-1.266-11.8-3.8c-2.935-2.531-4.969-5.666-6.101-9.4c-1.131-3.73-1.466-7.8-1-12.199
			c0.469-4.4,1.601-8.432,3.4-12.101c1.8-3.665,4.165-6.7,7.1-9.1c2.932-2.4,6.401-3.466,10.401-3.2
			c4.664,0.269,8.465,1.669,11.398,4.2c2.932,2.534,5.066,5.669,6.4,9.399c1.332,3.734,1.9,7.7,1.701,11.9
			c-0.201,4.2-1.17,8.1-2.9,11.7c-1.734,3.6-4.17,6.6-7.301,9C500.754,829.557,496.989,830.757,492.59,830.757z M495.19,821.757
			c1.465,0.135,2.666-0.565,3.6-2.1c0.932-1.531,1.6-3.531,2-6c0.4-2.466,0.566-5.166,0.5-8.101c-0.068-2.931-0.4-5.665-1-8.199
			c-0.6-2.531-1.434-4.666-2.5-6.4c-1.068-1.731-2.334-2.6-3.801-2.6c-1.334,0-2.469,0.8-3.398,2.399
			c-0.936,1.601-1.635,3.601-2.102,6c-0.469,2.4-0.699,5.034-0.699,7.9c0,2.868,0.266,5.534,0.801,8
			c0.531,2.469,1.33,4.568,2.398,6.3C492.055,820.692,493.456,821.626,495.19,821.757z"/>
		<path d="M725.385,815.358c0.666,3.469,1.332,7.068,2,10.8c0.666,3.734,1,7.134,1,10.2c0,1.6-0.27,3.266-0.801,5
			c-0.533,1.73-1.234,3.3-2.1,4.699c-0.869,1.4-1.869,2.566-3,3.5c-1.135,0.932-2.369,1.4-3.699,1.4c-1.734,0-3.301-1.1-4.701-3.3
			c-1.398-2.2-2.568-5.101-3.5-8.7c-0.934-3.6-1.734-7.631-2.398-12.1c-0.67-4.466-1.201-8.966-1.602-13.5
			c-0.398-4.531-0.668-8.832-0.799-12.9c-0.135-4.065-0.201-7.5-0.201-10.3c0-6.266,0.467-13.031,1.4-20.3
			c0.932-7.266,1.467-14.101,1.6-20.5c-2.668,3.469-5.568,8.3-8.699,14.5c-3.135,6.199-6.535,12.868-10.199,20
			c-3.67,7.134-7.5,14.399-11.5,21.8c-4,7.399-8.135,14.134-12.4,20.2c-4.27,6.068-8.701,11-13.301,14.8s-9.234,5.7-13.9,5.7
			c-2.533,0-4.867-0.535-7-1.601c-2.133-1.068-4.133-2.399-6-4c-1.867-1.6-3.6-3.399-5.199-5.399s-3.068-3.932-4.4-5.801
			c-4.799-6.531-9.268-13.431-13.4-20.699c-4.133-7.266-7.799-14.432-11-21.5c-0.398,5.469-0.533,9.534-0.398,12.199
			c0.131,2.669,0.199,5,0.199,7c0,6.135-0.434,12.27-1.301,18.4c-0.867,6.135-2.834,11.932-5.898,17.4
			c-2.135,3.865-5.4,5.8-9.801,5.8c-0.668,0-1.5-0.069-2.5-0.2c-1-0.135-1.934-0.4-2.801-0.8c-0.867-0.4-1.633-0.9-2.299-1.5
			c-0.67-0.601-1-1.369-1-2.3c0.266-2.535,0.699-4.935,1.299-7.2c0.602-2.266,1.232-4.466,1.9-6.601c1.332-4,2.566-8.3,3.701-12.899
			c1.131-4.601,2.164-9.3,3.1-14.101c0.932-4.8,1.766-9.631,2.5-14.5c0.73-4.865,1.299-9.565,1.699-14.1
			c0-0.932,0.031-1.865,0.1-2.8c0.066-0.932,0.367-1.866,0.9-2.8c-1.199-3.866-3.168-7.932-5.9-12.2
			c-2.734-4.266-5.533-8.3-8.398-12.101c-2.869-3.8-5.4-7.131-7.602-10c-2.199-2.865-3.367-4.766-3.5-5.699
			c-0.133-0.531,0.031-0.832,0.5-0.9c0.467-0.065,1-0.065,1.602,0c0.6,0.068,1.199,0.234,1.799,0.5c0.6,0.269,0.967,0.4,1.1,0.4
			c5.332,3.469,10.102,7.634,14.301,12.5c4.199,4.868,8.23,10.399,12.1,16.6c3.865,6.2,7.732,13.068,11.6,20.6
			c3.867,7.535,8.201,15.7,13,24.5v-0.199c1.332,2.399,2.9,5.199,4.701,8.399c1.799,3.2,3.766,6.269,5.9,9.2
			c2.131,2.935,4.33,5.4,6.6,7.4c2.266,2,4.6,3,7,3c2.4-0.132,5.23-2.166,8.5-6.101c3.266-3.931,6.699-8.865,10.299-14.8
			c3.602-5.932,7.232-12.4,10.9-19.4c3.666-7,7.166-13.631,10.5-19.899c1.467-2.932,3.467-6.666,6-11.2
			c2.531-4.531,5.4-9.365,8.6-14.5c3.201-5.131,6.633-10.266,10.301-15.4c3.666-5.131,7.432-9.8,11.301-14
			c3.865-4.199,7.73-7.6,11.6-10.199c3.865-2.601,7.531-3.9,11-3.9c0.666,0,1.23,0.2,1.699,0.6c0.467,0.4,0.701,1.069,0.701,2
			c0,1.469-0.369,2.969-1.102,4.5c-0.734,1.535-1.5,3.035-2.299,4.5c-1.869,2.935-3.9,6.2-6.1,9.801c-2.201,3.6-5.5,8.269-9.9,14
			c0.266,7.334,0.631,14.769,1.1,22.3c0.465,7.534,1,14.8,1.6,21.8s1.301,13.5,2.1,19.5
			C723.385,805.958,724.317,811.092,725.385,815.358z"/>
		<path d="M761.985,781.358c1.865,0.399,3.5,1.269,4.9,2.6c1.4,1.334,2.564,2.8,3.5,4.4c1.064-1.2,2.4-1.866,4-2
			c1.6-0.132,3.131,0.1,4.6,0.699c1.465,0.601,2.666,1.535,3.6,2.801c0.932,1.269,1.266,2.769,1,4.5c-0.533,2.399-1.033,5.399-1.5,9
			c-0.469,3.6-0.768,7.068-0.9,10.399c-0.133,3.335-0.033,6.2,0.301,8.601c0.332,2.399,1.031,3.6,2.1,3.6
			c0.801,0,1.766-1.031,2.9-3.1c1.131-2.066,2.266-4.5,3.4-7.301c1.131-2.8,2.166-5.6,3.1-8.399c0.932-2.8,1.531-4.932,1.801-6.4
			c0.398-1.331,1.064-2.231,2-2.7c0.93-0.465,1.83-0.6,2.699-0.399c0.865,0.2,1.6,0.7,2.199,1.5c0.602,0.8,0.701,1.8,0.301,3
			c-0.27,0.8-0.699,2.3-1.301,4.5c-0.6,2.2-1.367,4.634-2.299,7.3c-0.936,2.669-2.035,5.435-3.301,8.3
			c-1.268,2.869-2.734,5.4-4.4,7.601c-1.668,2.199-3.533,3.899-5.6,5.1c-2.068,1.2-4.299,1.466-6.699,0.8
			c-3.869-1.065-6.67-3.399-8.4-7c-1.068,3.2-2.535,6.101-4.4,8.7c-1.869,2.6-4.268,4.5-7.199,5.7c-2.801,0.931-5.27,1.131-7.4,0.6
			c-3.869-1.068-6.934-3.469-9.199-7.2c-2.27-3.73-3.801-8.065-4.602-13c-0.799-4.931-0.865-10.065-0.199-15.399
			c0.668-5.331,2.031-10.132,4.1-14.4c2.066-4.266,4.832-7.631,8.301-10.1C752.85,781.192,757.051,780.426,761.985,781.358z
			 M767.184,801.557c-0.268-2.266-0.768-4.465-1.5-6.6c-0.734-2.131-1.834-3.331-3.299-3.6c-2.135-0.4-4.035,0.368-5.701,2.3
			c-1.668,1.935-3.033,4.5-4.1,7.7c-1.068,3.199-1.834,6.699-2.299,10.5c-0.469,3.8-0.602,7.399-0.4,10.8
			c0.199,3.399,0.73,6.3,1.6,8.7c0.865,2.399,2.166,3.734,3.9,4c1.73,0.269,3.365-0.666,4.9-2.801c1.531-2.131,2.865-4.865,4-8.199
			c1.131-3.332,2-7.031,2.6-11.101C767.485,809.192,767.584,805.292,767.184,801.557z"/>
		<path d="M846.584,800.158c0.531-1.2,1.266-1.966,2.199-2.3c0.932-0.332,1.801-0.366,2.6-0.101c0.801,0.269,1.367,0.769,1.701,1.5
			c0.33,0.734,0.23,1.7-0.301,2.9c-0.799,1.868-1.9,4.6-3.299,8.2c-1.4,3.6-3.07,7.234-5,10.899c-1.936,3.669-4.234,6.9-6.9,9.7
			c-2.67,2.8-5.67,4.334-9,4.6c-4,0.27-6.9-0.73-8.701-3c-1.799-2.266-3-5-3.6-8.199c-0.6-3.2-0.799-6.4-0.6-9.601
			s0.432-5.531,0.699-7c0-0.665-0.334-1-1-1c-0.668,0-1.5,0.2-2.5,0.601c-1,0.399-2,0.969-3,1.699c-1,0.734-1.768,1.5-2.299,2.301
			c-0.135,5.068-0.234,9.8-0.301,14.199c-0.068,4.4-0.033,8.069,0.1,11c0,1.866-0.699,3.231-2.1,4.101c-1.4,0.865-3,1.266-4.799,1.2
			c-1.801-0.069-3.4-0.601-4.801-1.601s-2.1-2.5-2.1-4.5c0.135-3.331,0.299-7.531,0.5-12.6c0.199-5.065,0.369-10.466,0.5-16.2
			c0.135-5.731,0.266-11.565,0.4-17.5c0.131-5.932,0.23-11.466,0.299-16.6c0.066-5.132,0.1-9.601,0.1-13.4s0-6.432,0-7.9
			c-0.133-2.531,0.633-4.565,2.301-6.1c1.666-1.531,3.5-2.565,5.5-3.1c2-0.531,3.801-0.531,5.4,0c1.6,0.534,2.266,1.534,2,3
			c-0.135,0.934-0.334,3.134-0.6,6.6c-0.27,3.469-0.535,7.734-0.801,12.8c-0.27,5.069-0.535,10.635-0.801,16.7
			c-0.268,6.068-0.469,12.169-0.6,18.3c3.066-3.731,5.9-7.231,8.5-10.5c2.6-3.266,4.166-6.5,4.701-9.7
			c0.131-1.465,1.23-2.6,3.299-3.399c2.066-0.8,4.201-1.2,6.4-1.2s4.1,0.469,5.699,1.4c1.602,0.934,2,2.269,1.201,4
			c-0.936,2-2.568,4-4.9,6c-2.334,2-4.77,3.934-7.301,5.8c-2.533,1.868-4.934,3.6-7.199,5.2c-2.27,1.6-3.801,3-4.6,4.199
			c0.932-0.266,2.5-0.766,4.699-1.5c2.201-0.73,4.332-1.199,6.4-1.399c2.066-0.2,3.73,0.169,5,1.1c1.266,0.935,1.432,2.935,0.5,6
			c-0.801,2.4-1.27,4.869-1.4,7.4c-0.135,2.534-0.068,4.769,0.201,6.7c0.266,1.934,0.766,3.399,1.5,4.399
			c0.73,1,1.631,1.169,2.699,0.5c1.199-0.8,2.4-2.2,3.6-4.2c1.201-2,2.4-4.23,3.6-6.699c1.201-2.466,2.332-4.966,3.4-7.5
			C844.85,803.827,845.784,801.757,846.584,800.158z"/>
		<path d="M879.383,800.958c-1.07,1.469-2.4,2.669-4,3.6c-1.602,0.935-3.336,1.7-5.201,2.301c-1.869,0.6-3.768,1.034-5.699,1.3
			c-1.936,0.269-3.635,0.469-5.1,0.6c-0.4,2.8-0.635,5.534-0.701,8.2c-0.068,2.669,0.066,5.068,0.4,7.2
			c0.332,2.134,0.865,3.935,1.6,5.399c0.732,1.469,1.766,2.4,3.1,2.801c1.732,0.534,3.602,0.234,5.602-0.9
			c2-1.131,3.93-2.7,5.799-4.7c1.865-2,3.666-4.331,5.4-7c1.73-2.665,3.266-5.231,4.6-7.7c1.332-2.465,2.467-4.73,3.4-6.8
			c0.932-2.065,1.531-3.565,1.801-4.5c0.398-1.2,1.031-2,1.898-2.399c0.867-0.4,1.701-0.531,2.5-0.4c0.801,0.135,1.467,0.568,2,1.3
			c0.531,0.734,0.666,1.7,0.4,2.9c-0.268,0.8-0.734,2.368-1.4,4.7c-0.668,2.334-1.633,4.969-2.898,7.899
			c-1.27,2.935-2.801,5.969-4.602,9.101c-1.799,3.134-3.969,6-6.5,8.6c-2.533,2.6-5.434,4.766-8.699,6.5
			c-3.27,1.731-6.9,2.6-10.9,2.6c-4.799,0-8.533-1.668-11.199-5c-2.67-3.331-4.469-7.531-5.4-12.6c-0.932-5.065-1.1-10.5-0.5-16.3
			s1.801-11.231,3.6-16.3c1.801-5.066,4.066-9.266,6.801-12.601c2.73-3.331,5.766-5,9.1-5c3.199,0,6.031,1.101,8.5,3.3
			c2.465,2.2,4.365,4.77,5.699,7.7c1.332,2.935,2.102,5.935,2.301,9C881.282,796.827,880.713,799.226,879.383,800.958z
			 M866.983,783.158c-0.936,0.399-1.936,2.1-3,5.1c-1.068,3-2.068,6.635-3,10.9c1.465,0,2.932-0.166,4.4-0.5
			c1.465-0.331,2.531-1.031,3.199-2.101c0.531-0.8,0.865-1.965,1-3.5c0.131-1.531,0.1-3.1-0.1-4.699c-0.201-1.601-0.535-2.932-1-4
			C868.014,783.292,867.514,782.892,866.983,783.158z"/>
		<path d="M927.381,791.358c-0.936,1.734-2.068,2.934-3.4,3.6c-1.334,0.669-2.5,0.869-3.5,0.6c-1-0.266-1.734-0.931-2.199-2
			c-0.469-1.065-0.234-2.531,0.699-4.399c1.332-2.666,3.332-5,6-7c2.666-2,5.566-3.766,8.699-5.3
			c3.133-1.531,6.367-2.966,9.701-4.301c3.33-1.331,6.365-2.8,9.1-4.399c2.73-1.601,4.965-3.4,6.699-5.4
			c1.732-2,2.602-4.399,2.602-7.2c0-4.399-1.67-7.931-5-10.6c-3.336-2.666-7.4-4.731-12.201-6.2c-4.799-1.466-9.834-2.466-15.1-3
			c-5.27-0.531-9.77-0.8-13.5-0.8c-2.668,0-5.5,0.1-8.5,0.3s-5.834,0.569-8.5,1.101c-2.668,0.534-4.869,1.3-6.6,2.3
			c-1.734,1-2.6,2.368-2.6,4.1c0,0.935,0.568,1.669,1.699,2.2c1.131,0.534,2.4,1.034,3.801,1.5c1.398,0.469,2.664,1,3.799,1.6
			c1.131,0.601,1.701,1.435,1.701,2.5c0,0.535-0.301,0.969-0.9,1.301c-0.6,0.334-1.234,0.634-1.9,0.899
			c-0.668,0.269-1.369,0.469-2.1,0.601c-0.734,0.134-1.17,0.199-1.301,0.199c-3.869,0-7.266-1.065-10.199-3.199
			c-2.932-2.132-4.4-5.132-4.4-9c0-4.266,1.4-7.766,4.199-10.5c2.801-2.731,6.135-4.9,10-6.5c3.867-1.601,7.9-2.7,12.102-3.301
			c4.199-0.6,7.631-0.899,10.299-0.899c3.467,0,7.4,0.234,11.801,0.7c4.4,0.469,8.865,1.234,13.4,2.3
			c4.531,1.068,8.898,2.5,13.1,4.3c4.199,1.8,7.799,4,10.799,6.6c3,2.601,5.201,5.7,6.602,9.301c1.398,3.6,1.631,7.668,0.699,12.199
			c-0.801,3.469-2.334,6.535-4.6,9.2c-2.27,2.669-4.936,5.034-8,7.101c-3.068,2.068-6.334,3.934-9.801,5.6
			c-3.469,1.669-6.768,3.234-9.9,4.7c-3.133,1.469-5.898,2.935-8.299,4.399C929.981,788.026,928.313,789.626,927.381,791.358z
			 M934.782,823.557c-0.27,3.335-1.701,5.7-4.301,7.101c-2.6,1.399-5.301,1.769-8.1,1.1c-2.67-0.665-5.1-2.031-7.301-4.1
			c-2.199-2.065-3.168-4.632-2.9-7.7c0.266-3.466,1.566-5.9,3.9-7.3c2.332-1.4,5.031-1.9,8.1-1.5
			c3.066,0.669,5.666,2.134,7.801,4.399C934.112,817.827,935.047,820.492,934.782,823.557z"/>
	</g>
</g>
</svg>
